# AST/ASF file generated using VICON BodyLanguage
# -----------------------------------------------
:version 1.10
:name VICON
:units
  mass 1.0
  length 0.45
  angle deg
:documentation
   .ast/.asf automatically generated from VICON data using
   VICON BodyBuilder and BodyLanguage model FoxedUp or BRILLIANT.MOD
:root
   order TX TY TZ RX RY RZ
   axis XYZ
   position 0 0 0  
   orientation 0 0 0 
:bonedata
  begin
     id 1 
     name lhipjoint
     direction 0.606768 -0.715223 0.346827 
     length 2.41543 
     axis 0 0 0  XYZ
  end
  begin
     id 2 
     name lfemur
     direction 0.34202 -0.939693 0  
     length 7.2778  
     axis 0 0 20  XYZ
    dof rx ry rz
    limits (-160.0 20.0)
           (-70.0 70.0)
           (-60.0 70.0)
  end
  begin
     id 3 
     name ltibia
     direction 0.34202 -0.939693 0   
     length 7.61811   
     axis 0 0 20   XYZ
    dof rx
    limits (-10.0 170.0)
  end
  begin
     id 4 
     name lfoot
     direction 0.0823924 -0.226371 0.97055   
     length 2.33618   
     axis -90 7.62852e-016 20   XYZ
    dof rx rz
    limits (-45.0 90.0)
           (-70.0 20.0)
  end
  begin
     id 5 
     name ltoes
     direction 1.53554e-011 -4.21934e-011 1   
     length 1.17015   
     axis -90 7.62852e-016 20   XYZ
    dof rx
    limits (-90.0 20.0)
  end
  begin
     id 6 
     name rhipjoint
     direction -0.6077 -0.714582 0.346516   
     length 2.4176  
     axis 0 0 0  XYZ 
  end
  begin
     id 7 
     name rfemur
     direction -0.34202 -0.939693 0   
     length 7.28127   
     axis 0 0 -20   XYZ
    dof rx ry rz
    limits (-160.0 20.0)
           (-70.0 70.0)
           (-70.0 60.0)
  end
  begin
     id 8 
     name rtibia
     direction -0.34202 -0.939693 0   
     length 7.77648   
     axis 0 0 -20   XYZ
    dof rx
    limits (-10.0 170.0)
 end
 begin
     id 9 
     name rfoot
     direction -0.0809463 -0.222398 0.97159   
     length 2.37533  
     axis -90 -7.62852e-016 -20   XYZ
    dof rx rz
    limits (-45.0 90.0)
           (-20.0 70.0)
  end
  begin
     id 10 
     name rtoes
     direction -1.53568e-011 -4.21714e-011 1   
     length 1.18972   
     axis -90 -7.62852e-016 -20   XYZ
    dof rx
    limits (-90.0 20.0)
  end
  begin
     id 11 
     name lowerback
     direction 0.010968 0.991932 -0.126297   
     length 2.21698   
     axis 0 0 0   XYZ
    dof rx ry rz
    limits (-20.0 45.0)
           (-30.0 30.0)
           (-30.0 30.0)
  end
  begin
     id 12 
     name upperback
     direction 0.0167007 0.997503 -0.0686276   
     length 2.22371   
     axis 0 0 0   XYZ
    dof rx ry rz
    limits (-20.0 45.0)
           (-30.0 30.0)
           (-30.0 30.0)
  end
  begin
     id 13 
     name thorax
     direction 0.0111721 0.999885 -0.0102878   
     length 2.25242   
     axis 0 0 0   XYZ
    dof rx ry rz
    limits (-20.0 45.0)
           (-30.0 30.0)
           (-30.0 30.0)
  end
  begin
     id 14 
     name lowerneck
     direction -0.0120265 0.990428 0.137508   
     length 1.57674   
     axis 0 0 0   XYZ
    dof rx ry rz
    limits (-20.0 45.0)
           (-30.0 30.0)
           (-30.0 30.0)
  end
  begin
     id 15 
     name upperneck
     direction 0.0175669 0.998907 0.0433089   
     length 1.5618   
     axis 0 0 0   XYZ
    dof rx ry rz
    limits (-20.0 45.0)
           (-30.0 30.0)
           (-30.0 30.0)
  end
  begin
     id 16
     name head
     direction 0.00754609 0.99997 0.00185367  
     length 1.60579  
     axis 0 0 0   XYZ
    dof rx ry rz
    limits (-20.0 45.0)
           (-30.0 30.0)
           (-30.0 30.0)
  end
  begin
     id 17 
     name lclavicle
     direction 0.885866 0.429166 -0.176231  
     length 3.44967  
     axis 0 0 0   XYZ
    dof ry rz
    limits (-20.0 10.0)
           (0.0 20.0)
  end
  begin
     id 18 
     name lhumerus
     direction 1 -4.48973e-011 -1.90255e-027   
     length 5.20607   
     axis 180 -30 -90   XYZ
    dof rx ry rz
    limits (-60.0 90.0)
           (-90.0 90.0)
           (-90.0 90.0)
  end
  begin
     id 19
     name lradius
     direction 1 -4.48956e-011 9.87925e-027   
     length 3.39961   
     axis 180 -30 -90   XYZ
    dof rx
    limits (-10.0 170.0)
  end
  begin
     id 20
     name lwrist
     direction 1 -4.48985e-011 1.73247e-026   
     length 1.6998   
     axis -9.60847e-015 90 90   XYZ
    dof ry
    limits (-180.0 0.0)
 end
  begin
     id 21 
     name lhand
     direction 1 -4.48798e-011 3.46119e-026   
     length 0.519693   
     axis -2.21073e-014 90 90   XYZ
    dof rx rz
    limits (-90.0 90.0)
           (-45.0 45.0)
  end
  begin
     id 22 
     name lfingers
     direction 1 -4.48938e-011 6.92797e-026   
     length 0.41899   
     axis -4.42155e-014 90 90   XYZ
    dof rx
    limits (0.0 90.0)
  end
  begin
     id 23
     name lthumb
     direction 0.707107 -6.34952e-011 0.707107   
     length 0.601588   
     axis -90 45 6.0103e-014   XYZ
    dof rx rz
    limits (-45.0 45.0)
           (-45.0 45.0)
  end
  begin
     id 24 
     name rclavicle
     direction -0.866736 0.456792 -0.200276   
     length 3.45032  
     axis 0 0 0   XYZ 
    dof ry rz
    limits (-10.0 20.0)
           (-20.0 0.0)
  end
  begin
     id 25 
     name rhumerus
     direction -1 -4.4897e-011 8.65094e-028  
     length 5.32214   
     axis 180 30 90   XYZ
    dof rx ry rz
    limits (-90.0 60.0)
           (-90.0 90.0)
           (-90.0 90.0)
  end
  begin
     id 26 
     name rradius
     direction -1 -4.48987e-011 1.08427e-026   
     length 3.51208   
     axis 180 30 90   XYZ
    dof rx
    limits (-10.0 170.0)
  end
  begin
     id 27 
     name rwrist
     direction -1 -4.48961e-011 1.73222e-026   
     length 1.75604   
     axis -9.60847e-015 -90 -90   XYZ
    dof ry
    limits (-180.0 0.0)
  end
  begin
     id 28
     name rhand
     direction -1 -4.48895e-011 3.46314e-026   
     length 0.586681   
     axis -2.21073e-014 -90 -90   XYZ
    dof rx rz
    limits (-90.0 90.0)
           (-45.0 45.0)
  end
  begin
     id 29
     name rfingers
     direction -1 -4.48968e-011 6.92916e-026   
     length 0.472997   
     axis -4.42155e-014 -90 -90   XYZ
    dof rx
    limits (0.0 90.0)
  end
  begin
     id 30
     name rthumb
     direction -0.707107 -6.34848e-011 0.707107   
     length 0.679133   
     axis -90 -45 -6.0103e-014   XYZ
    dof rx rz
    limits (-45.0 45.0)
           (-45.0 45.0)
  end
:hierarchy
  begin
    root lhipjoint rhipjoint lowerback
    lhipjoint lfemur
    lfemur ltibia
    ltibia lfoot
    lfoot ltoes
    rhipjoint rfemur
    rfemur rtibia
    rtibia rfoot
    rfoot rtoes
    lowerback upperback
    upperback thorax
    thorax lowerneck lclavicle rclavicle
    lowerneck upperneck
    upperneck head
    lclavicle lhumerus
    lhumerus lradius
    lradius lwrist
    lwrist lhand lthumb
    lhand lfingers
    rclavicle rhumerus
    rhumerus rradius
    rradius rwrist
    rwrist rhand rthumb
    rhand rfingers
  end

#!OML:ASF H:\Dans Jumps\Project 1\Capture day 1\Session 1\subject.ASF
:FULLY-SPECIFIED
:DEGREES
1
root 0.327852 17.3911 -14.6167 7.17884 0.35641 -2.20626
lowerback 2.35632 -0.426164 0.505083
upperback 4.37639 -0.624908 2.34611
thorax 3.2004 -0.339241 2.12914
lowerneck -12.739 0.64052 -1.57782
upperneck 33.9962 1.33995 0.0887809
head 13.5961 0.39193 0.515171
rclavicle 9.0447e-015 -1.78906e-014
rhumerus -14.8794 -9.3375 -83.0999
rradius 28.6132
rwrist 26.8121
rhand -19.0282 -27.1214
rfingers 7.12502
rthumb 7.27792 -56.9762
lclavicle 9.0447e-015 -1.78906e-014
lhumerus -11.8459 -5.05614 88.3955
lradius 21.2783
lwrist 5.82915
lhand -23.5795 -5.8723
lfingers 7.12502
lthumb 2.88347 24.088
rfemur -20.6896 -3.56079 20.9867
rtibia 28.6718
rfoot -14.1309 -3.14677
rtoes 11.095
lfemur -19.9299 8.35195 -17.1144
ltibia 28.0772
lfoot -13.2181 3.7413
ltoes 0.0420588
2
root 0.330984 17.3876 -14.6186 7.18361 0.367282 -2.22584
lowerback 2.37594 -0.427137 0.533721
upperback 4.38466 -0.626095 2.35277
thorax 3.19777 -0.339065 2.12007
lowerneck -12.7502 0.636601 -1.6029
upperneck 33.9528 1.33249 0.113359
head 13.5791 0.38918 0.528028
rclavicle 2.18663e-015 -7.95139e-016
rhumerus -14.8001 -9.18055 -83.1566
rradius 28.6328
rwrist 26.5886
rhand -18.9535 -27.2306
rfingers 7.12502
rthumb 7.35 -57.0829
lclavicle 2.18663e-015 -7.95139e-016
lhumerus -11.9336 -5.42355 88.4009
lradius 21.4341
lwrist 6.09365
lhand -23.7633 -5.13548
lfingers 7.12502
lthumb 2.70591 24.8271
rfemur -20.7471 -3.57726 20.9986
rtibia 28.7687
rfoot -14.1853 -3.15553
rtoes 11.0217
lfemur -20.0116 8.3551 -17.1095
ltibia 28.2078
lfoot -13.2648 3.76313
ltoes -0.0361294
3
root 0.333449 17.3843 -14.6202 7.18019 0.375359 -2.23046
lowerback 2.41214 -0.431405 0.528478
upperback 4.37859 -0.631273 2.36716
thorax 3.17154 -0.341995 2.1381
lowerneck -12.7345 0.637486 -1.60439
upperneck 33.9215 1.34383 0.0833616
head 13.5621 0.390339 0.517803
rclavicle -1.49089e-015 -9.54166e-015
rhumerus -14.7598 -9.02076 -83.1892
rradius 28.6481
rwrist 26.4347
rhand -18.9509 -27.3104
rfingers 7.12502
rthumb 7.35256 -57.1626
lclavicle -1.49089e-015 -9.54166e-015
lhumerus -11.9993 -5.60665 88.4171
lradius 21.4827
lwrist 6.19461
lhand -24.0341 -4.7125
lfingers 7.12502
lthumb 2.44443 25.2532
rfemur -20.7986 -3.59889 20.9981
rtibia 28.864
rfoot -14.222 -3.15174
rtoes 11.0672
lfemur -20.0936 8.36194 -17.1162
ltibia 28.3533
lfoot -13.3194 3.77644
ltoes -0.00671284
4
root 0.335852 17.3798 -14.6222 7.17713 0.360002 -2.27298
lowerback 2.44159 -0.429189 0.565278
upperback 4.39681 -0.628402 2.38104
thorax 3.17359 -0.339739 2.13201
lowerneck -12.7847 0.635912 -1.61732
upperneck 33.889 1.33877 0.103448
head 13.5587 0.389262 0.527396
rclavicle 4.77083e-015 1.23246e-014
rhumerus -14.6621 -8.76243 -83.2472
rradius 28.678
rwrist 26.2741
rhand -18.992 -27.3139
rfingers 7.12502
rthumb 7.31289 -57.1675
lclavicle 4.77083e-015 1.23246e-014
lhumerus -12.0109 -6.04414 88.4305
lradius 21.5347
lwrist 6.63232
lhand -24.3293 -4.35272
lfingers 7.12502
lthumb 2.15935 25.6161
rfemur -20.8588 -3.56834 21.0359
rtibia 28.9627
rfoot -14.2479 -3.17781
rtoes 10.9189
lfemur -20.1769 8.39711 -17.0815
ltibia 28.5019
lfoot -13.366 3.7859
ltoes 0.00505303
5
root 0.338304 17.3756 -14.6246 7.17728 0.356846 -2.29917
lowerback 2.47429 -0.429703 0.586531
upperback 4.40486 -0.628831 2.39314
thorax 3.16351 -0.339513 2.1328
lowerneck -12.8022 0.632703 -1.63008
upperneck 33.8489 1.33394 0.113545
head 13.5447 0.387203 0.532773
rclavicle -7.65321e-015 2.78299e-014
rhumerus -14.5835 -8.53063 -83.2959
rradius 28.7121
rwrist 26.1065
rhand -19.0207 -27.3288
rfingers 7.12502
rthumb 7.28517 -57.1834
lclavicle -7.65321e-015 2.78299e-014
lhumerus -12.0398 -6.43645 88.4476
lradius 21.5964
lwrist 7.00253
lhand -24.6548 -3.9943
lfingers 7.12502
lthumb 1.84494 25.9775
rfemur -20.924 -3.55762 21.0569
rtibia 29.067
rfoot -14.2821 -3.19636
rtoes 10.8269
lfemur -20.269 8.41944 -17.0658
ltibia 28.6559
lfoot -13.4186 3.79779
ltoes -0.0108605
6
root 0.340726 17.3711 -14.6276 7.18045 0.351105 -2.3256
lowerback 2.51017 -0.429867 0.607902
upperback 4.41215 -0.628677 2.40465
thorax 3.15082 -0.338975 2.13294
lowerneck -12.8208 0.628621 -1.64187
upperneck 33.8079 1.32687 0.12557
head 13.5307 0.384546 0.538402
rclavicle 4.27387e-015 7.95139e-016
rhumerus -14.5031 -8.27407 -83.3434
rradius 28.7656
rwrist 25.9373
rhand -19.044 -27.3284
rfingers 7.12502
rthumb 7.26266 -57.1838
lclavicle 4.27387e-015 7.95139e-016
lhumerus -12.0588 -6.8791 88.4677
lradius 21.6603
lwrist 7.43854
lhand -25.0335 -3.73493
lfingers 7.12502
lthumb 1.4792 26.2397
rfemur -21.0003 -3.54057 21.0779
rtibia 29.1799
rfoot -14.3155 -3.21739
rtoes 10.7335
lfemur -20.3729 8.44517 -17.0509
ltibia 28.8209
lfoot -13.4728 3.80978
ltoes -0.0355074
7
root 0.343265 17.3664 -14.6313 7.18637 0.342453 -2.34713
lowerback 2.5498 -0.42881 0.627167
upperback 4.4191 -0.626728 2.4133
thorax 3.1356 -0.337548 2.13134
lowerneck -12.8426 0.62365 -1.65391
upperneck 33.7662 1.31707 0.14216
head 13.5171 0.381272 0.545484
rclavicle -3.37934e-015 1.39149e-014
rhumerus -14.419 -7.99832 -83.3888
rradius 28.8437
rwrist 25.7651
rhand -19.0491 -27.3163
rfingers 7.12502
rthumb 7.25774 -57.1718
lclavicle -3.37934e-015 1.39149e-014
lhumerus -12.0691 -7.37483 88.4877
lradius 21.7469
lwrist 7.95057
lhand -25.4216 -3.55641
lfingers 7.12502
lthumb 1.1044 26.4205
rfemur -21.0887 -3.52159 21.0927
rtibia 29.3049
rfoot -14.3515 -3.23753
rtoes 10.6415
lfemur -20.4833 8.47337 -17.0433
ltibia 28.9891
lfoot -13.5278 3.82023
ltoes -0.0634906
8
root 0.345864 17.3614 -14.6356 7.19454 0.330561 -2.36159
lowerback 2.59524 -0.426115 0.64072
upperback 4.42439 -0.622377 2.41946
thorax 3.11533 -0.335041 2.13042
lowerneck -12.8687 0.618089 -1.66252
upperneck 33.7297 1.30664 0.155843
head 13.5067 0.377716 0.550774
rclavicle -3.67752e-015 -1.90833e-014
rhumerus -14.3344 -7.7087 -83.43
rradius 28.9513
rwrist 25.5872
rhand -19.0311 -27.2976
rfingers 7.12502
rthumb 7.27514 -57.1525
lclavicle -3.67752e-015 -1.90833e-014
lhumerus -12.0729 -7.89735 88.5052
lradius 21.8671
lwrist 8.50266
lhand -25.776 -3.45808
lfingers 7.12502
lthumb 0.762084 26.5203
rfemur -21.1891 -3.5017 21.0993
rtibia 29.4428
rfoot -14.3908 -3.25613
rtoes 10.5634
lfemur -20.6018 8.50607 -17.0453
ltibia 29.1648
lfoot -13.5843 3.8288
ltoes -0.0965785
9
root 0.348561 17.3562 -14.6404 7.20428 0.315352 -2.36975
lowerback 2.64642 -0.421651 0.65069
upperback 4.42867 -0.61546 2.42304
thorax 3.09071 -0.331306 2.12888
lowerneck -12.9002 0.611383 -1.66975
upperneck 33.698 1.29463 0.16873
head 13.4997 0.373491 0.555337
rclavicle -3.27995e-015 8.74653e-015
rhumerus -14.2486 -7.40324 -83.4668
rradius 29.0869
rwrist 25.3995
rhand -19.006 -27.2652
rfingers 7.12502
rthumb 7.29937 -57.1193
lclavicle -3.27995e-015 8.74653e-015
lhumerus -12.0635 -8.41464 88.5151
lradius 22.0182
lwrist 9.04393
lhand -26.0539 -3.43249
lfingers 7.12502
lthumb 0.49368 26.5467
rfemur -21.3003 -3.48418 21.099
rtibia 29.5938
rfoot -14.4337 -3.27152
rtoes 10.4913
lfemur -20.7269 8.54576 -17.0562
ltibia 29.3474
lfoot -13.6434 3.8332
ltoes -0.119679
10
root 0.351335 17.3505 -14.6458 7.2156 0.29796 -2.3739
lowerback 2.70529 -0.415119 0.658214
upperback 4.4313 -0.605553 2.4256
thorax 3.05996 -0.326116 2.1277
lowerneck -12.9371 0.603566 -1.67157
upperneck 33.672 1.28241 0.17382
head 13.4965 0.36877 0.555907
rclavicle 4.37326e-015 1.55052e-014
rhumerus -14.1599 -7.08547 -83.4981
rradius 29.2505
rwrist 25.1935
rhand -18.9745 -27.2138
rfingers 7.12502
rthumb 7.32979 -57.0668
lclavicle 4.37326e-015 1.55052e-014
lhumerus -12.0426 -8.91619 88.5166
lradius 22.2103
lwrist 9.53274
lhand -26.2226 -3.40042
lfingers 7.12502
lthumb 0.330781 26.5791
rfemur -21.4229 -3.4697 21.0945
rtibia 29.7584
rfoot -14.4802 -3.28275
rtoes 10.4328
lfemur -20.8606 8.59191 -17.0735
ltibia 29.5385
lfoot -13.7039 3.83341
ltoes -0.138287
11
root 0.354037 17.3445 -14.6512 7.22576 0.278739 -2.37419
lowerback 2.77001 -0.407821 0.662105
upperback 4.43416 -0.594485 2.42681
thorax 3.02615 -0.320432 2.12718
lowerneck -12.9749 0.593349 -1.6744
upperneck 33.6466 1.2678 0.176555
head 13.4939 0.362565 0.555371
rclavicle 1.39149e-015 -5.96354e-015
rhumerus -14.0679 -6.7549 -83.5266
rradius 29.4347
rwrist 24.9739
rhand -18.9985 -27.0817
rfingers 7.12502
rthumb 7.30658 -56.9355
lclavicle 1.39149e-015 -5.96354e-015
lhumerus -12.0042 -9.37735 88.5067
lradius 22.4225
lwrist 9.91125
lhand -26.2863 -3.37796
lfingers 7.12502
lthumb 0.269229 26.6016
rfemur -21.5522 -3.45772 21.0871
rtibia 29.9363
rfoot -14.5301 -3.29439
rtoes 10.3506
lfemur -20.9978 8.6469 -17.0953
ltibia 29.7386
lfoot -13.7694 3.82728
ltoes -0.150623
12
root 0.356746 17.338 -14.6572 7.23657 0.257774 -2.37372
lowerback 2.84187 -0.400612 0.664323
upperback 4.43653 -0.583399 2.42901
thorax 2.98787 -0.3148 2.12866
lowerneck -13.0095 0.582463 -1.67699
upperneck 33.6161 1.25423 0.172846
head 13.4884 0.356042 0.552345
rclavicle -7.95139e-015 9.93923e-015
rhumerus -13.9681 -6.40942 -83.5508
rradius 29.6384
rwrist 24.7351
rhand -19.053 -26.8956
rfingers 7.12502
rthumb 7.25397 -56.7513
lclavicle -7.95139e-015 9.93923e-015
lhumerus -11.9463 -9.79354 88.4881
lradius 22.6497
lwrist 10.155
lhand -26.2902 -3.34816
lfingers 7.12502
lthumb 0.265451 26.6314
rfemur -21.6919 -3.44876 21.0795
rtibia 30.1276
rfoot -14.5839 -3.30194
rtoes 10.2717
lfemur -21.1442 8.70705 -17.1191
ltibia 29.9498
lfoot -13.8368 3.81928
ltoes -0.16159
13
root 0.359427 17.3311 -14.6637 7.2495 0.235644 -2.37256
lowerback 2.91888 -0.392931 0.665916
upperback 4.43877 -0.571563 2.43102
thorax 2.94656 -0.308802 2.13031
lowerneck -13.0379 0.570596 -1.68058
upperneck 33.5756 1.23958 0.168127
head 13.4772 0.348914 0.548827
rclavicle -6.06293e-015 9.93923e-015
rhumerus -13.8575 -6.05868 -83.572
rradius 29.856
rwrist 24.4815
rhand -19.1457 -26.6732
rfingers 7.12502
rthumb 7.16451 -56.5319
lclavicle -6.06293e-015 9.93923e-015
lhumerus -11.8728 -10.1815 88.4622
lradius 22.8951
lwrist 10.2763
lhand -26.2653 -3.28617
lfingers 7.12502
lthumb 0.289519 26.6934
rfemur -21.8432 -3.44356 21.0717
rtibia 30.3315
rfoot -14.6404 -3.30342
rtoes 10.1998
lfemur -21.3012 8.77152 -17.1444
ltibia 30.1718
lfoot -13.9083 3.80754
ltoes -0.168396
14
root 0.36208 17.3237 -14.6709 7.26349 0.212814 -2.37471
lowerback 3.00246 -0.386544 0.669643
upperback 4.44167 -0.561344 2.43499
thorax 2.9023 -0.303579 2.13281
lowerneck -13.0633 0.559564 -1.68618
upperneck 33.5264 1.22747 0.160647
head 13.4615 0.342352 0.544882
rclavicle -1.12313e-014 4.77083e-015
rhumerus -13.7338 -5.7014 -83.5902
rradius 30.0881
rwrist 24.2175
rhand -19.249 -26.4567
rfingers 7.12502
rthumb 7.06482 -56.3188
lclavicle -1.12313e-014 4.77083e-015
lhumerus -11.7853 -10.5524 88.431
lradius 23.1547
lwrist 10.3153
lhand -26.2484 -3.2268
lfingers 7.12502
lthumb 0.305832 26.7527
rfemur -22.0053 -3.44231 21.0684
rtibia 30.5489
rfoot -14.7011 -3.29987
rtoes 10.1305
lfemur -21.4687 8.84208 -17.1669
ltibia 30.4066
lfoot -13.9844 3.79192
ltoes -0.179596
